- 
http://www.Speed.Cd      fast  and The Hottest Private Tracker on the net

   signup is open now

Please Seed back to make the speed Faster!!!

------------------nfo--------------------------
-Clarkson.Powered.Up.DVDRip.XviD.AC3-EMBER


Description
Jeremy Clarkson heads to the south of France where he puts cars to the test on the Circuit Paul Ricard and on the open road. 
Among the cars featured are the Ferrari FF and the 458, McLaren's MP4-12C, the latest Nissan GTR, the Porche GT2 RS, the 
Lamborghini Performante and the BMW 1M. The Stig and racing driver Karun Chandhok are on hand to help put these vehicles to 
the test, but which one will Jeremy choose as his favourite car of the year?

Produced                         : 2011
Running Time                     : 66 min
Extras                           : 21 min
Source                           : Own :P

General
Format                           : AVI
Format/Info                      : Audio Video Interleave
File size                        : 699 MiB
Duration                         : 1h 6mn
Overall bit rate                 : 1 469 Kbps
Writing application              : VirtualDubMod 1.5.10.2 (build 2540/release)
Writing library                  : VirtualDubMod build 2540/release

Video
ID                               : 0
Format                           : MPEG-4 Visual
Format profile                   : Advanced Simple@L5
Format settings, BVOP            : 2
Format settings, QPel            : No
Format settings, GMC             : No warppoints
Format settings, Matrix          : Default (H.263)
Muxing mode                      : Packed bitstream
Codec ID                         : XVID
Codec ID/Hint                    : XviD
Duration                         : 1h 6mn
Bit rate                         : 1 267 Kbps
Width                            : 720 pixels
Height                           : 400 pixels
Display aspect ratio             : 16:9
Frame rate                       : 25.000 fps
Color space                      : YUV
Chroma subsampling               : 4:2:0
Bit depth                        : 8 bits
Scan type                        : Progressive
Compression mode                 : Lossy
Bits/(Pixel*Frame)               : 0.176
Stream size                      : 603 MiB (86%)
Writing library                  : XviD 64

Audio
ID                               : 1
Format                           : AC-3
Format/Info                      : Audio Coding 3
Mode extension                   : CM (complete main)
Codec ID                         : 2000
Duration                         : 1h 6mn
Bit rate mode                    : Constant
Bit rate                         : 192 Kbps
Channel(s)                       : 2 channels
Channel positions                : Front: L R
Sampling rate                    : 48.0 KHz
Bit depth                        : 16 bits
Compression mode                 : Lossy
Stream size                      : 91.4 MiB (13%)
Alignment                        : Split accross interleaves
Interleave, duration             : 40 ms (1.00 video frame)
Interleave, preload duration     : 500 ms

Greetz to

SHiRK, SHK, LKRG, UnKnOwN, IMAGiNE, SiC, BHRG, TaRiQ786, FLAWL3SS, Rx

SAMURAi, ViSUALiSE, RemixHD, iNSANE, DTRG. Hive, ILLUMINATI, U.S.M

MiSTERE

And to all other groups past and present

Got something to offer?

then you should know where to find us